PathFileType	4	(X/Y/Z)	./resultDataOpenSim/trcMotMarkerGrf/sub09/qtm-03-03.trc
DataRate	CameraRate	NumFrames	NumMarkers	Units	OrigDataRate	OrigDataStartFrame	OrigNumFrames
250.000000	250.000000	7	24	m	250.000000	419	478
Frame#	Time	L.Toe.Tip			R.Toe.Tip			L.Ankle.Lat			R.Ankle.Lat			L.Ankle.Med			R.Ankle.Med			L.Heel			R.Heel			L.Knee.Lat			R.Knee.Lat			L.Knee.Med			R.Knee.Med			L.Thigh.Upper			R.Thigh.Upper			L.ASIS			R.ASIS			V.Sacral			L.Acromium			R.Acromium			C7			L.Elbow			R.Elbow			L.Wrist.Lat			R.Wrist.Lat
		X1	Y1	Z1	X2	Y2	Z2	X3	Y3	Z3	X4	Y4	Z4	X5	Y5	Z5	X6	Y6	Z6	X7	Y7	Z7	X8	Y8	Z8	X9	Y9	Z9	X10	Y10	Z10	X11	Y11	Z11	X12	Y12	Z12	X13	Y13	Z13	X14	Y14	Z14	X15	Y15	Z15	X16	Y16	Z16	X17	Y17	Z17	X18	Y18	Z18	X19	Y19	Z19	X20	Y20	Z20	X21	Y21	Z21	X22	Y22	Z22	X23	Y23	Z23	X24	Y24	Z24

419	1.672	1.750537	0.11300406	0.0041536337	1.016266	0.040003385	0.1341452	1.5966726	0.088107497	-0.025674998	0.87995491	0.093354536	0.16456864	1.6189706	0.11644239	0.066546785	0.90590639	0.12674591	0.074805747	1.5497787	0.028096247	0.025557177	0.80976988	0.093582245	0.11256789	1.4663031	0.48460177	-0.063333889	1.1280584	0.48326891	0.22581098	1.4687274	0.47762185	0.064006552	1.1194825	0.47548341	0.10008099	1.2721883	0.84949001	-0.10051033	1.2066601	0.8800043	0.26737213	1.3348209	0.94282922	-0.036476989	1.3205183	0.95832728	0.20438464	1.1569229	0.99715163	0.061556783	1.2811222	1.4047471	-0.10615823	1.2622486	1.4136825	0.22614168	1.2006965	1.4552732	0.057160411	1.131368	1.0726954	-0.16657987	1.1499561	1.0640948	0.31587343	1.2209436	0.83355831	-0.22520588	1.322182	0.84751846	0.30777018
420	1.676	1.7531527	0.10874296	0.0044691287	1.0164754	0.040047862	0.13437974	1.5992174	0.08553539	-0.025405637	0.88100474	0.09505757	0.16505363	1.6216419	0.11369675	0.066856141	0.90735891	0.12818675	0.075304585	1.5513806	0.026243	0.025846758	0.81084431	0.096190545	0.11303138	1.4736555	0.48384264	-0.063610016	1.1335517	0.48191886	0.22534283	1.4767956	0.47749099	0.063598804	1.1252675	0.47418503	0.10034704	1.2785051	0.84849381	-0.10138043	1.2128293	0.87875318	0.26674812	1.3415678	0.94150672	-0.037054141	1.3270011	0.95690681	0.20393011	1.163517	0.99576879	0.060891889	1.2868011	1.4036209	-0.10662366	1.2676163	1.4122647	0.22569733	1.2061685	1.4538493	0.056671782	1.1372733	1.0715853	-0.16734052	1.1557666	1.0625681	0.31493342	1.2265577	0.83231214	-0.22558471	1.3276077	0.84577482	0.30755537
421	1.68	1.7554482	0.10398951	0.0049866602	1.016675	0.040076487	0.13462582	1.6015494	0.082872512	-0.025093467	0.88216834	0.096840643	0.16557711	1.6238702	0.11084637	0.06729954	0.90893105	0.12970405	0.075806562	1.552415	0.024595925	0.026078551	0.81204208	0.098933535	0.11345016	1.480991	0.48300268	-0.063884914	1.1392807	0.48057919	0.22519287	1.4848322	0.47742074	0.063151322	1.1311792	0.47283333	0.1006219	1.2846757	0.84758636	-0.1023116	1.2190771	0.87749184	0.26611731	1.3483526	0.94025611	-0.037674469	1.333541	0.95547867	0.20344261	1.1701536	0.99437763	0.060266084	1.2924738	1.4025127	-0.10709527	1.2730325	1.4108538	0.22523997	1.2116654	1.4524288	0.056207377	1.1432056	1.0704815	-0.16809909	1.1616252	1.0611189	0.31402879	1.2322505	0.83107263	-0.22593829	1.3330094	0.84404134	0.30733871
422	1.684	1.7576669	0.098577438	0.0056910207	1.0168814	0.040112469	0.13482354	1.6037964	0.080297375	-0.024671848	0.88347876	0.098679755	0.16616197	1.6259357	0.10811557	0.067901493	0.91063985	0.13129818	0.076307464	1.5530783	0.02338532	0.026350533	0.81336891	0.10180663	0.11382078	1.4881988	0.48206223	-0.064207372	1.1451301	0.47924284	0.22537834	1.4927713	0.47734262	0.062645208	1.1371533	0.47142875	0.10086247	1.290727	0.8467304	-0.10328201	1.2254279	0.87621285	0.26547002	1.3551377	0.93907181	-0.038316109	1.3401761	0.95404671	0.20292933	1.1767976	0.9929945	0.059670515	1.2981382	1.4014258	-0.10756684	1.2784873	1.4094481	0.22476936	1.2171627	1.4509984	0.055738824	1.149153	1.0693683	-0.16888351	1.1675143	1.0597375	0.31315379	1.2380216	0.82984515	-0.22627299	1.3384031	0.84232135	0.30712179
423	1.688	1.7601212	0.092514817	0.0065405249	1.0171257	0.040187624	0.1349269	1.6061162	0.078093865	-0.024128521	0.8849191	0.10056269	0.16680948	1.628252	0.10577853	0.068588057	0.91249444	0.1329634	0.076813839	1.5536703	0.022904501	0.026760112	0.81482856	0.10480252	0.1141441	1.4952222	0.48104157	-0.064619877	1.151019	0.47795164	0.22580078	1.5005315	0.47717052	0.062070635	1.1431624	0.46996668	0.10105883	1.2967061	0.84589025	-0.104265	1.2318313	0.87492029	0.26477621	1.361859	0.93796078	-0.038946198	1.3468806	0.95262053	0.20240091	1.1833941	0.99165425	0.059089935	1.3037986	1.4003608	-0.10803997	1.2839587	1.4080533	0.2242864	1.2226488	1.4495673	0.055262189	1.1551187	1.0682341	-0.16970114	1.1733485	1.0583557	0.31222595	1.2438639	0.82863785	-0.2265881	1.3437888	0.84061425	0.3069077
424	1.692	1.7630455	0.086159487	0.0074622338	1.0174255	0.040311637	0.13496394	1.6086805	0.076507285	-0.023565608	0.88644046	0.10252233	0.16747543	1.6311721	0.10399064	0.069190891	0.91449385	0.13468897	0.077339682	1.5544614	0.023365434	0.027326286	0.81642211	0.1079205	0.1144403	1.502126	0.48003548	-0.065151592	1.1570438	0.47672103	0.22636986	1.5080699	0.47683982	0.061435809	1.1493163	0.46843751	0.10130497	1.3026714	0.8450465	-0.10523625	1.2382669	0.87361928	0.26401986	1.3684579	0.93694742	-0.039536777	1.3535113	0.95121297	0.20186282	1.1898997	0.99039573	0.05851903	1.3094628	1.3993184	-0.10852656	1.2894439	1.4066762	0.22379643	1.2281137	1.4481778	0.0547798	1.1611144	1.0670877	-0.1705253	1.1789764	1.0568677	0.31110721	1.2497653	0.82745825	-0.22687537	1.3491486	0.83891418	0.30669494
425	1.696	1.7664003	0.080154209	0.0083338628	1.0177742	0.040467836	0.13501338	1.6115466	0.075565797	-0.023155212	0.88801679	0.10461248	0.1681153	1.6346949	0.10267525	0.06956292	0.91662992	0.13646869	0.077904439	1.5555591	0.024670151	0.027895601	0.81814998	0.11117068	0.11475997	1.5090799	0.47923013	-0.065820772	1.1633712	0.47550858	0.22701966	1.5154318	0.47637949	0.06075812	1.1558939	0.46683285	0.10180316	1.3086859	0.84420005	-0.10617492	1.2446437	0.87229061	0.26318896	1.3749138	0.93605713	-0.040085539	1.3598104	0.9498479	0.20131609	1.1962883	0.9892462	0.057964877	1.3151304	1.3983045	-0.10903841	1.2949602	1.405324	0.22331064	1.2335534	1.4468727	0.05427291	1.1671473	1.0659511	-0.17131209	1.1843118	1.0552199	0.3097252	1.2557249	0.82630964	-0.22712935	1.3544671	0.83721641	0.30647822
